<?xml version="1.0" encoding="utf-8"?>
<!-- Generator: Adobe Illustrator 22.0.1, SVG Export Plug-In . SVG Version: 6.00 Build 0)  -->
<svg version="1.1" id="Layer_1" xmlns="http://www.w3.org/2000/svg" xmlns:xlink="http://www.w3.org/1999/xlink" x="0px" y="0px"
	 viewBox="0 0 48 30.3" style="enable-background:new 0 0 48 30.3;" xml:space="preserve">
<style type="text/css">
	.st0{fill:#F9B43B;}
</style>
<g>
	<path class="st0" d="M20.5,5.9L21,6.4c0.6,0.6,1.2,0.9,1.9,0.9c0,0,0,0,0,0c0.6,0,1.1-0.3,1.4-0.7c0.2-0.4,0.2-0.8,0.2-1
		c-0.1-0.4-0.2-0.6-0.5-0.8c-0.4-0.3-0.9-0.4-1.3-0.4c-0.4,0-1.1,0.2-1.7,0.9c0.2,0,0.4-0.1,0.6-0.1c0,0.1,0,0.2,0,0.3
		c-0.3,0-0.5,0-0.8,0.1L20.5,5.9z"/>
	<path class="st0" d="M13,9.1l-0.7-0.8l-0.6,0.9c0,0.1-0.1,0.1-0.1,0.2c-0.2,0.3-0.6,0.7-0.4,1.3c0.2,0.4,0.4,0.8,0.7,1.1
		c0.1,0.1,0.2,0.2,0.2,0.3l0.3,0.4l1.3-0.2l0.2-0.4c0-0.1,0-0.1,0.1-0.2c0.1-0.3,0.4-0.8,0.1-1.3c-0.2-0.4-0.5-0.7-0.8-1
		C13.2,9.3,13.1,9.2,13,9.1z"/>
	<path class="st0" d="M31.2,10.3l2.5-2.6L33,7.1C33,7.1,32.9,7,32.8,7c-0.3-0.3-0.5-0.5-0.9-0.5l-0.2,0l-0.2,0.1
		c-0.5,0.3-1,0.7-1.4,1.1c-0.6,0.5-0.1,1.1,0.2,1.5c0.1,0.1,0.2,0.3,0.3,0.4L31.2,10.3z"/>
	<path class="st0" d="M16.7,8.5c0.3,0,0.5-0.1,0.9-0.4C17.7,8.1,17.9,8,18,7.9l1-0.6l-1.4-1C17.3,6,17,5.8,16.8,5.6
		c-0.4,0-0.7,0-1.1-0.1c0.3,0,0.6,0,0.9,0c-0.1,0-0.1-0.1-0.2-0.1l-0.2-0.1H16c-0.4,0-0.6,0.3-0.9,0.5C15,5.8,15,5.9,14.9,5.9
		l-0.6,0.6l0.9,0.9c0.1,0.1,0.2,0.2,0.2,0.2c0.2-0.1,0.5-0.2,0.8-0.2C16.1,7.6,16,7.8,15.9,8c0.1,0.1,0.2,0.2,0.4,0.3l0.2,0.2H16.7
		L16.7,8.5z"/>
	<path class="st0" d="M6.7,12.9c-0.1,0.3-0.1,0.7-0.2,1l-0.3,1.6h4.4l0.2,0.5l0.1-0.5H28c-0.1,0.1-0.1,0.3-0.2,0.4
		c0.1,0.1,0.2,0.2,0.2,0.2c0.2-0.2,0.3-0.4,0.5-0.7h15.1l-0.1-1.8c0-0.3,0-0.5-0.1-0.7c-0.4-3.4-2.2-6.2-5.3-8.5
		C34.6,1.8,30,0.4,25,0.4c-1.8,0-3.6,0.2-5.3,0.6l-0.6,0.2l0.1,0.3c-0.1,0.1-0.2,0.3-0.2,0.5c0,0.2,0.1,0.3,0.2,0.4l-0.1,0l0.1,0.4
		c0,0.1,0,0.1,0.1,0.2c0,0,0,0,0,0.1c-0.1-0.1-0.1-0.2-0.2-0.3c-0.1,0-0.2,0-0.2,0.1c0,0.2,0,0.4,0,0.6c0.2,0,0.3-0.1,0.5-0.1l0,0.5
		l0.6-0.1c2.1-0.5,4.3-0.7,6.5-0.5l-0.8,0.8L27,5.1c0.3,0.3,0.6,0.7,1,1l0.4,0.3h0.5c0.5,0,0.8-0.2,1.2-0.5c0.1-0.1,0.3-0.2,0.4-0.3
		l1.6-1L31,3.9c2.1,0.6,4,1.5,5.7,2.7c0.2,0.1,0.3,0.2,0.5,0.4C36.5,7.1,36,7.8,36,7.9l-0.2,0.4l0.3,0.4c0.3,0.4,0.6,0.8,0.9,1.1
		l0.7,0.9l0,0c-0.2-0.5-0.3-1-0.7-1.4c-0.1-0.1,0-0.4-0.1-0.6c0.1,0,0.1,0,0.2-0.1c0.4,0.5,0.8,1,1.2,1.5l1.1-0.9
		c0.7,1.1,1.2,2.2,1.5,3.5h-5.2c0.1-0.1,0.1-0.1,0.2-0.2c0.1-0.1,0.2-0.1,0.2-0.2l0.9-0.6l-2.5-2l-2.4,2.1l1,0.6
		c0.1,0.1,0.2,0.1,0.3,0.2c0.1,0,0.1,0.1,0.2,0.1h-7.5l1.7-2.2l-1.2-1.3c0,0.1,0,0.2-0.1,0.3c-0.1,0.2,0.3,0.5,0.4,0.7
		c0.1,0.1,0.2,0.2,0.4,0.5c-0.9-0.3-0.9-0.3-1.2-1C26,9.5,25.8,9,25.6,8.6l-0.4,0.6c-0.1,0.1-0.1,0.2-0.2,0.2
		c-0.2,0.3-0.6,0.7-0.5,1.3c0,0.5,0.4,0.9,0.6,1.2c0.1,0.1,0.1,0.2,0.2,0.2l0.4,0.6h-6.9l0.9-0.9c0.3-0.3,0.7-0.6,1-1
		c0.4-0.5,0.1-1-0.2-1.4c-0.1-0.1-0.2-0.3-0.3-0.4l-0.6-1l-0.7,1c-0.1,0.2-0.2,0.3-0.3,0.5c-0.3,0.4-0.6,0.8-0.8,1.2
		c-0.3,0.6,0.1,1.1,0.4,1.3c0.1,0.1,0.1,0.1,0.2,0.2l0.6,0.6H9.4c0.1-0.5,0.2-1,0.4-1.5c0.7-2,2.1-3.6,4.3-5.1
		c0.7-0.4,1.4-0.8,2.1-1.2l0,0l0,0c0.8-0.4,1.6-0.7,2.5-1L19,3.9l-0.5-2.6L18,1.5c-2,0.6-3.8,1.5-5.4,2.6c-0.7,0.5-1.4,1-2,1.6
		l-0.2,0.3l0.1,0.3c0,0.1,0,0.1,0,0.2L10.1,6C9,7.2,8.1,8.5,7.5,9.9C7,10,6.6,10.2,6.1,10.3c0,0.1,0.1,0.2,0.1,0.3
		c0.4-0.1,0.8-0.3,1.2-0.4c0,0.1-0.1,0.2-0.1,0.3C7,11.3,6.8,12.1,6.7,12.9z M25.3,11.9c0.1-0.5,1.1-1.1,1.5-0.9
		c0.1,0,0.2,0.3,0.1,0.5c-0.2,0.5-0.7,0.8-1.5,0.9C25.4,12.2,25.3,12.1,25.3,11.9z"/>
	<polygon class="st0" points="18.8,1.8 18.7,1.8 18.8,1.8 	"/>
	<path class="st0" d="M43.9,29.6c0.2,0.3,0.3,0.5,0.5,0.7c0.2-0.2,0.5-0.3,0.6-0.5c0.1-0.1-0.1-0.4-0.1-0.4
		C44.6,29.4,44.3,29.5,43.9,29.6z"/>
	<path class="st0" d="M44.7,20.2c-0.8-0.1-1.1,0.2-1.1,0.9C44.3,21.3,44.2,20.5,44.7,20.2z"/>
	<path class="st0" d="M34.5,23c0,0.1,0.1,0.2,0.1,0.3c0.5-0.2,1.1-0.4,1.6-0.5c0-0.1-0.1-0.2-0.1-0.2C35.6,22.7,35,22.9,34.5,23z"/>
	<path class="st0" d="M36,17.3c-0.2,0.1-0.3,0.2-0.5,0.4c0.2,0.1,0.3,0.2,0.5,0.2c0.1,0,0.3-0.1,0.4-0.2c0.1-0.1,0-0.3,0-0.4
		C36.3,17.3,36.1,17.3,36,17.3z"/>
	<path class="st0" d="M27.4,21.2c-0.2,0.5-0.3,0.8-0.5,1.2c0.7,0.1,0.6-0.5,0.8-0.9C27.7,21.5,27.5,21.3,27.4,21.2z"/>
	<path class="st0" d="M29.6,10.6c0,0.2,0.1,0.4,0.3,0.5c0.1,0.1,0.3,0.1,0.4,0.1c0-0.2,0-0.3,0-0.5c0-0.2,0.1-0.4,0.2-0.7
		c-0.2,0-0.5,0-0.7,0C29.7,10.2,29.5,10.4,29.6,10.6z"/>
	<path class="st0" d="M27.4,8.2c0.1-0.5,0.3-1.1,0.4-1.7C27.2,6.7,27,7.5,27.4,8.2z"/>
	<path class="st0" d="M15.9,10.4c0.2-0.2,0.5-0.3,0.6-0.5c0.1-0.1-0.1-0.4-0.1-0.4c-0.3,0-0.6,0.1-1,0.1
		C15.7,10,15.8,10.2,15.9,10.4z"/>
	<path class="st0" d="M29.1,8.8c-0.5-0.5-0.7-0.5-1.2-0.1c0.1,0.2,0.2,0.3,0.3,0.5C28.4,9.1,28.7,9,29.1,8.8z"/>
	<path class="st0" d="M0,11.5c0,0.1,0,0.1,0,0.2c0.3,0.2,0.5,0.3,0.9,0.6c0-0.4,0-0.8-0.1-0.8C0.6,11.5,0.3,11.5,0,11.5z"/>
	<path class="st0" d="M9.1,16.2C9.1,16.2,9.1,16.1,9.1,16.2C9.1,16.1,9.1,16.2,9.1,16.2C9.1,16.2,9.1,16.2,9.1,16.2z"/>
	<path class="st0" d="M1.7,11.7c0.4,0.2,0.9,0.1,1.3,0.1c0-0.1,0-0.2,0-0.2c-0.4,0-0.9-0.1-1.3-0.1C1.7,11.5,1.7,11.6,1.7,11.7z"/>
	<path class="st0" d="M28.7,17.9c0-0.4,0-0.8,0-1.3c-0.1,0-0.2,0-0.2,0c0,0.4,0.1,0.9,0.1,1.3C28.6,17.9,28.6,17.9,28.7,17.9z"/>
	<path class="st0" d="M9.9,1.1C9.6,0.7,9.3,0.4,9,0c0,0-0.1,0.1-0.1,0.1c0.3,0.4,0.7,0.7,1,1.1C9.9,1.2,9.9,1.1,9.9,1.1z"/>
	<path class="st0" d="M46.6,4.4c0,0.2,0,0.5,0,0.7c0.4,0.1,0.9,0.2,1.3,0.3c0-0.1,0.1-0.2,0.1-0.3C47.5,4.9,47,4.7,46.6,4.4z"/>
	<path class="st0" d="M43.4,19.4l-0.1-1.2h-1.2c-0.3,0-0.6,0-1,0c-0.6,0-1.2,0-1.6,0c-0.5-0.1-1-0.1-1.5-0.1c-0.4,0-0.8,0-1.2,0.1
		h-7.4c-0.1,0-0.3,0-0.4,0l-1.6,0h-0.1l-1.6,0v0h-0.3c-1.9,0-4,0-6.4,0l-12.3,0l-0.1,1.2c-0.1,2.5,0.9,5.1,2.7,7.1
		c1.8,2,4.4,3.1,6.9,3.2c3.2,0.1,6.3,0.1,9.4,0.1c2.6,0,5.2,0,7.8-0.1c2.7,0,5.3-1.2,7.2-3.3c1.3-1.4,2.2-3.2,2.5-5l0,0l0.1-1l0,0
		C43.5,20,43.5,19.7,43.4,19.4z M26,18.8c0.1,0.2,0.1,0.3,0.1,0.5C26.1,19.1,26,18.9,26,18.8c-0.1-0.1-0.1-0.1-0.1-0.2l0-0.2
		L26,18.8z M39,24.6c-1.4,1.6-3.4,2.5-5.4,2.5c-5.6,0.1-11.4,0.1-17.1,0c-1.9,0-3.8-0.9-5.2-2.4c-1.1-1.2-1.8-2.6-2-4.1l9.8,0
		c2.4,0,4.5,0,6.4,0v0l0.5,0c0.1,0,0.1,0,0.2,0l1,0l0,0l2.1,0c0.3,0,0.5,0,0.8,0.1h2.4h1.2h3.2l0.1,0c0.6-0.1,1.4-0.2,2.2-0.1
		l0.6,0.1c0.4,0,0.8,0,1.3,0C40.7,22.1,40,23.5,39,24.6z"/>
</g>
</svg>
