<?xml version="1.0" encoding="utf-8"?>
<!-- Generator: Adobe Illustrator 22.0.1, SVG Export Plug-In . SVG Version: 6.00 Build 0)  -->
<svg version="1.1" id="_x31_" xmlns="http://www.w3.org/2000/svg" xmlns:xlink="http://www.w3.org/1999/xlink" x="0px" y="0px"
	 viewBox="0 0 18.8 20" style="enable-background:new 0 0 18.8 20;" xml:space="preserve">
<path d="M17.3,5.8l0.3-0.3c0.3-0.3,1-1.1,0.7-1.6c-0.2-0.5-0.7-0.6-0.9-0.7c-0.6-0.2-1.3,0.4-1.5,0.6l-0.2,0.2
	c-1.1-1.1-2.5-1.9-4.1-2.3c-0.1-0.2-0.3-0.4-0.4-0.6C10.6,0.4,9.8,0.1,9,0.1C8.2,0.2,7.4,0.6,6.9,1.3C6.7,1.4,6.7,1.6,6.6,1.8
	c-1.3,0.4-2.5,1.1-3.4,2C3,3.5,2.8,3.4,2.8,3.3C2.4,3,1.6,3,1,3.4C0.4,3.9,0.7,4.7,0.9,5c0,0,0.2,0.3,0.5,0.6C0.6,7.1,0,8.8,0,10.5
	c0,3.3,1.8,6.3,4.4,7.9c0,0,0,0.1,0,0.1l0.1,0c1.4,0.8,3,1.3,4.7,1.3c1.9,0,3.6-0.6,5-1.5l0,0l0.1,0c0,0-0.6-1.3-1-3
	c-0.4-1.7-0.2-3.5-0.2-3.5c0.1-1.3,1.7-3.4,2.3-4.1l1.4-1.4c0.7,1.3,1.2,2.7,1.2,4.2c0,2.4-1,4.4-2.5,6L16,17
	c1.7-1.7,2.8-4.1,2.8-6.6C18.6,8.8,18.1,7.2,17.3,5.8z M7.5,1.8c0.4-0.5,1-0.8,1.6-0.9c0.6,0,1.2,0.2,1.7,0.7
	c0.5,0.5,0.8,1.2,0.8,1.9c0,0.7-0.2,1.4-0.6,2C10.5,6,10,6.3,9.4,6.3C8.1,6.4,7,5.2,6.9,3.7C6.8,3,7,2.3,7.5,1.8z M6.2,2.6
	C6.2,3,6.1,3.4,6.1,3.8c0.1,1.8,1.5,3.3,3.1,3.3c0.1,0,0.1,0,0.2,0C10.2,7,11,6.6,11.5,5.9c0.5-0.7,0.8-1.6,0.7-2.5
	c0-0.3-0.1-0.6-0.2-0.9c1.2,0.4,2.3,1,3.1,1.8l-1.7,1.4c-0.2,0.2-0.6,0.4-0.9,0.7c-0.4,0.3-0.7,0.5-0.7,0.5
	c-0.4,0.3-1.4,0.7-3.1,0.7c-1.8,0-3.7-2-3.7-2c0,0-0.7-0.7-1.3-1.4C4.4,3.6,5.3,3.1,6.2,2.6z M0.8,10.7c0-1.6,0.5-3.1,1.1-4.4
	C2.7,7.2,3.7,8.4,4,8.8c0.5,0.5,1.2,1.5,1.3,1.7c0.1,0.4,0,0.8-0.3,1.4c-0.2,0.5-0.4,1-0.5,1.7c-0.2,1.1-0.2,3-0.2,4.1
	C2.2,16.1,0.8,13.5,0.8,10.7z M14.9,7.2c-0.1,0.1-2.4,2.7-2.5,4.5c0,0.1-0.2,1.9,0.2,3.7c0.3,1.2,0.6,2.2,0.9,2.8
	c-1.2,0.7-2.6,1.2-4.1,1.2c-1.5,0-3-0.4-4.2-1.1c0-0.9,0-3.3,0.2-4.5c0.1-0.6,0.3-1.1,0.4-1.6c0.2-0.7,0.5-1.3,0.3-1.9l0-0.1
	C6,10,5.2,8.9,4.6,8.2C4,7.7,1.5,4.6,1.5,4.6c0,0-0.3-0.4-0.1-0.6c0.4-0.2,0.8-0.2,0.8-0.2c0.2,0.2,2.2,2.3,2.2,2.3
	c0.1,0.1,2.1,2.2,4.3,2.2c1.9,0,3-0.5,3.6-0.9c0.1-0.1,0.4-0.3,0.7-0.5c0.3-0.2,0.7-0.5,1-0.7l2.5-2C16.7,4,17,3.8,17.1,3.8l0.1,0
	c0,0,0.3,0.1,0.4,0.3c0,0.1-0.2,0.5-0.5,0.8L14.9,7.2z"/>
</svg>
