<?xml version="1.0" encoding="utf-8"?>
<!-- Generator: Adobe Illustrator 22.0.1, SVG Export Plug-In . SVG Version: 6.00 Build 0)  -->
<svg version="1.1" id="_x31_" xmlns="http://www.w3.org/2000/svg" xmlns:xlink="http://www.w3.org/1999/xlink" x="0px" y="0px"
	 viewBox="0 0 22.3 18.9" style="enable-background:new 0 0 22.3 18.9;" xml:space="preserve">
<g id="_x31__1_">
	<path d="M11.6,18.8c-0.8,0-1.6-0.2-2.3-0.4c-0.4-0.1-0.9-0.2-1.1-0.2c-0.3,0-0.6,0.1-1,0.3c-0.4,0.2-0.8,0.3-1.1,0.3
		c-0.4,0-1-0.5-1.4-0.8c-1.3-1.1-2.6-2.9-3.2-4.4c-0.6-1.6-1.1-4.1-1.1-4.2C0.4,9.2,0,5.7,0,4.5c0-1.2,0.6-2.1,0.7-2.1
		C0.8,2.3,2,1.1,2.6,0.7c0.6-0.6,1.3-0.6,1.6-0.6c0.3,0,0.9,0.2,1,0.2l0.1,0c0.1,0,1.3,0.9,1.8,1.3C7.7,2.2,7.5,3,7.2,3.4
		C7.2,3.5,7,3.6,6.5,4.2c-0.6,0.7-1,1-1.7,1C4.3,5.3,4,4.8,3.9,4.4C3.6,4.6,3.5,4.8,3.5,5.1c0.4,1.3,1.3,2.6,2.4,3.6
		c0.5,0.5,1,1.2,1.5,2.1c0.5-2.6,2.7-3.3,3.9-3.3c0.6,0,1.1,0.1,1.4,0.3c0-3.4,3.3-4.6,4.9-4.6c1.3,0,4.8,0.9,4.8,5
		c0,3.4-2.8,4.5-3.6,4.8C17.2,17.5,13.4,18.8,11.6,18.8z M1.2,9.3c0,0,0.5,2.5,1.1,4c0.5,1.4,1.7,3.1,3,4.1C5.6,17.8,6,18,6.1,18
		c0.2,0,0.5-0.1,0.8-0.3c0.4-0.2,0.8-0.3,1.3-0.3c0.3,0,0.8,0.1,1.3,0.2c0.7,0.2,1.4,0.4,2.1,0.4c0,0,4.8-0.1,6.4-5.5l0.1-0.2l0.2,0
		c0.1,0,3.2-0.8,3.2-4.1c0-3.5-2.9-4.2-4-4.2c-0.9,0-4.1,0.6-4.1,3.8V9l-0.6-0.4c0,0-0.6-0.4-1.6-0.4c-0.1,0-3,0-3.2,3.4l0,0.3
		l-0.9,0.3L7,11.7c-0.5-1.2-1.1-2.1-1.6-2.6c-1.2-1-2.2-2.5-2.6-4l0-0.1c0-0.7,0.5-1.3,1.3-1.6l0.4-0.1l0.1,0.4
		c0.1,0.3,0.2,0.7,0.3,0.7c0.3,0,0.5-0.1,1.1-0.8C6.5,3.1,6.6,3,6.6,2.9h0c0,0,0.2-0.5,0-0.6C6.2,1.9,5.2,1.2,4.9,1
		C4.7,1,4.4,0.9,4.2,0.9c-0.3,0-0.7,0-1.1,0.4C2.5,1.7,1.3,2.8,1.3,2.9h0c0,0-0.5,0.7-0.5,1.6C0.8,5.7,1.2,9.2,1.2,9.3L1.2,9.3z"/>
</g>
</svg>
