<?xml version="1.0" encoding="utf-8"?>
<!-- Generator: Adobe Illustrator 22.0.1, SVG Export Plug-In . SVG Version: 6.00 Build 0)  -->
<svg version="1.1" id="_x31_" xmlns="http://www.w3.org/2000/svg" xmlns:xlink="http://www.w3.org/1999/xlink" x="0px" y="0px"
	 viewBox="0 0 20.6 20.8" style="enable-background:new 0 0 20.6 20.8;" xml:space="preserve">
<g>
	<path d="M10.3,0.2C4.7,0.2,0.1,4.8,0.1,10.4c0,5.6,4.6,10.2,10.2,10.2S20.5,16,20.5,10.4C20.5,4.8,15.9,0.2,10.3,0.2z M10.3,19.8
		c-5.2,0-9.4-4.2-9.4-9.4S5.1,1,10.3,1c5.2,0,9.4,4.2,9.4,9.4S15.5,19.8,10.3,19.8z"/>
	<path d="M10.2,15.7c-3.5,0-5.8-3.1-5.8-3.1L3.8,13c0.1,0.1,2.6,3.5,6.4,3.5c3.9,0,6.1-3.3,6.2-3.5l-0.6-0.4
		C15.8,12.6,13.6,15.7,10.2,15.7z"/>
	<path d="M6.7,11.4L6.7,11.4C6.7,11.4,6.7,11.4,6.7,11.4C6.7,11.4,6.7,11.4,6.7,11.4L6.7,11.4c0.6-0.3,2.8-1.6,2.8-3
		c0.1-0.7-0.3-1.4-1-1.7C7.9,6.5,7.2,6.6,6.7,7C6.1,6.6,5.5,6.5,4.9,6.8C4.3,7,3.9,7.7,3.9,8.4C3.9,9.8,6.2,11.1,6.7,11.4z M5.2,7.4
		c0.4-0.2,1,0,1.4,0.6l0,0l0.1,0.1L6.8,8V7.9c0.4-0.5,0.9-0.7,1.4-0.5c0.4,0.2,0.6,0.5,0.6,1c0,0.7-1.1,1.6-2,2.2
		c-0.9-0.6-2-1.5-2-2.2C4.6,8,4.9,7.6,5.2,7.4z"/>
	<path d="M13.5,11.4L13.5,11.4C13.5,11.4,13.5,11.4,13.5,11.4C13.5,11.4,13.5,11.4,13.5,11.4L13.5,11.4c0.6-0.3,2.8-1.6,2.8-3
		c0.1-0.7-0.3-1.4-1-1.7c-0.6-0.2-1.2-0.1-1.8,0.3c-0.6-0.4-1.2-0.5-1.8-0.3c-0.7,0.3-1.1,1-1,1.7C10.7,9.8,13,11.1,13.5,11.4z
		 M12,7.4c0.4-0.2,0.9,0,1.4,0.5V8l0.1,0.1L13.6,8V7.9C14,7.4,14.5,7.2,15,7.4c0.4,0.2,0.6,0.5,0.6,1c0,0.7-1.1,1.6-2,2.2
		c-0.9-0.6-2-1.5-2-2.2C11.4,8,11.7,7.6,12,7.4z"/>
</g>
</svg>
