<?xml version="1.0" encoding="utf-8"?>
<!-- Generator: Adobe Illustrator 22.0.1, SVG Export Plug-In . SVG Version: 6.00 Build 0)  -->
<svg version="1.1" id="_x31_" xmlns="http://www.w3.org/2000/svg" xmlns:xlink="http://www.w3.org/1999/xlink" x="0px" y="0px"
	 viewBox="0 0 15.2 15.2" style="enable-background:new 0 0 15.2 15.2;" xml:space="preserve">
<g>
	<path d="M13.4,4.9H4.1c-1.8,0-3-1.3-3-1.3L0.6,3.1V2.6c0.6-2,3.1-2,3.2-2h2.5c1.3,0,2.2,0.3,2.8,1c0.8,0.9,0.7,2.1,0.7,2.1l0.5,0
		c0-0.1,0.1-1.4-0.9-2.5C8.8,0.5,7.7,0.1,6.3,0.1H3.7v0c-0.4,0-3,0.2-3.6,2.4l0,6.2c0,0.5,0.7,2.6,3.9,2.6v-0.5
		c-2.8,0-3.4-1.8-3.4-2.1V3.8l0.1,0.1c0.1,0.1,1.4,1.5,3.4,1.5l9.2,0c0,0,1.2,0.3,1.2,1.5c0,1.3-0.5,1.9-1.8,1.9l-6.2,0
		c0,0-0.5,0-0.9,0.3C5.2,9.3,5,9.8,5,10.5l0,3.4c0,0,0.1,1,1.7,1h6.4c0,0,0,0,0.1,0c0.2,0,0.8,0,1.3-0.5c0.3-0.3,0.5-0.8,0.5-1.4
		V6.8C15,5.5,14,5,13.4,4.9z M14.5,13.1c0,0.4-0.1,0.8-0.4,1c-0.4,0.4-1,0.3-1,0.3H6.8c-1.1,0-1.2-0.5-1.3-0.5v-3.4
		c0-0.5,0.1-0.9,0.4-1.1c0.3-0.2,0.6-0.2,0.6-0.2h2.1v1.7h0.5V9.1h3.2v1.7h0.5V9.1c0.8,0,1.3-0.2,1.7-0.7V13.1z"/>
	<path d="M5.3,2.5c-0.6,0-1,0.2-1,0.4c0,0.2,0.4,0.4,1,0.4c0.6,0,1-0.2,1-0.4C6.3,2.7,5.9,2.5,5.3,2.5z"/>
</g>
</svg>
