<?xml version="1.0" encoding="utf-8"?>
<!-- Generator: Adobe Illustrator 22.0.1, SVG Export Plug-In . SVG Version: 6.00 Build 0)  -->
<svg version="1.1" id="_x31_" xmlns="http://www.w3.org/2000/svg" xmlns:xlink="http://www.w3.org/1999/xlink" x="0px" y="0px"
	 viewBox="0 0 16 15.2" style="enable-background:new 0 0 16 15.2;" xml:space="preserve">
<g>
	<path d="M15.7,9.3C15.6,9.2,14,6.8,9.4,6.5c-1.9,0-3.3,0.6-4.2,1.7c-1.4,1.7-1.1,4-1.1,4.1c-1.3,1.3-1.9,2.4-1.9,2.5l0.4,0.2
		c0-0.1,2.9-5.7,9.7-5.2l0-0.5c-3.6-0.3-6.2,1.1-7.8,2.5c0-0.7,0-2.2,1-3.3c0.8-1,2.1-1.5,3.9-1.5c3.8,0.3,5.4,2,5.8,2.5
		c-0.4,0.7-2.4,4.1-6.7,4.5C7,14.1,5,13,5,13l-0.2,0.4c0.1,0,1.9,1,3.5,1c0.1,0,0.2,0,0.2,0c5.1-0.5,7.2-4.9,7.2-4.9l0.1-0.1
		L15.7,9.3z"/>
	<path d="M2.3,9.4C2.5,10.4,2.5,12,2.6,12L3,12c0-0.1-0.1-2.2-0.4-3.3C2.4,7.8,2.2,5.3,2.9,3.8L2.5,3.6C1.7,5.2,1.9,7.9,2.2,8.9
		c0,0,0,0,0,0.1C1.7,8.6,0.6,7.6,0.7,5.5C0.9,3.3,2.5,1.4,3,0.9c0.7,0.8,3.3,3.9,0.4,7.4l0.4,0.3c3.6-4.3-0.6-8.2-0.6-8.2L3,0.2
		L2.8,0.3C2.7,0.4,0.5,2.6,0.3,5.5c-0.2,2.9,1.8,4,1.9,4L2.3,9.4z"/>
</g>
</svg>
