<?xml version="1.0" encoding="utf-8"?>
<!-- Generator: Adobe Illustrator 22.0.1, SVG Export Plug-In . SVG Version: 6.00 Build 0)  -->
<svg version="1.1" id="_x31__2_" xmlns="http://www.w3.org/2000/svg" xmlns:xlink="http://www.w3.org/1999/xlink" x="0px" y="0px"
	 viewBox="0 0 18.2 14.8" style="enable-background:new 0 0 18.2 14.8;" xml:space="preserve">
<g>
	<path d="M18.2,11.2V7.7c0-0.8-0.5-1.3-0.5-1.3c0,0-0.6-0.7-1.1-1.4l-0.2-0.3c-0.2-0.3-0.3-0.5-0.5-0.6c-0.6-0.6-1-0.6-1.1-0.6h-3.5
		V3c0-0.3-0.2-1-1.2-1H7.2C6.5,0.9,5.3,0.3,4,0.3c-2.2,0-4,1.8-4,4c0,0.9,0.3,1.7,0.8,2.4v4.7c0,0.3,0.2,1,1,1h0.7
		c0,0.1,0,0.1,0,0.2c0,1.2,1,2.1,2.2,2.1s2.1-1,2.1-2.1c0-0.1,0-0.1,0-0.2l3.2,0v0h0.1c0,0,0,0,0.1,0c0,0,0,0,0,0H12
		c0,0.1,0,0.1,0,0.2c0,1.2,1,2.1,2.1,2.1s2.2-1,2.2-2.1c0-0.1,0-0.1,0-0.2h0.6c0.5,0,0.9-0.1,1.1-0.4C18.2,11.6,18.2,11.2,18.2,11.2
		z M17.3,6.8c0,0,0.3,0.3,0.3,0.9l0,0.1l-3.9,0c-0.1,0-0.4-0.1-0.4-0.6V5.8c0-0.1,0-0.3,0.5-0.3h2.5V5.5C16.8,6.1,17.3,6.7,17.3,6.8
		z M4,0.8c1.9,0,3.5,1.5,3.5,3.5S5.9,7.6,4,7.6S0.5,6.1,0.5,4.2S2.1,0.8,4,0.8z M4.7,14C3.8,14,3,13.3,3,12.4c0-0.9,0.7-1.7,1.7-1.7
		c0.9,0,1.6,0.7,1.6,1.7C6.4,13.3,5.6,14,4.7,14z M6.7,11.8c-0.3-0.9-1.1-1.5-2-1.5s-1.8,0.6-2,1.5H1.9c-0.5,0-0.5-0.3-0.5-0.5V7.1
		c0.7,0.6,1.6,1,2.6,1c2.2,0,4-1.8,4-4C8,3.6,7.8,3,7.5,2.5h2.6c0.6,0,0.6,0.5,0.7,0.5v8.1c0,0.2-0.1,0.4-0.2,0.5
		c-0.1,0.1-0.3,0.1-0.4,0.1h-0.1H10H6.7z M14.1,14c-0.9,0-1.6-0.7-1.6-1.6c0-0.9,0.7-1.7,1.6-1.7c0.9,0,1.7,0.7,1.7,1.7
		C15.8,13.3,15,14,14.1,14z M17.5,11.5c-0.1,0.1-0.4,0.2-0.7,0.2h-0.7c-0.3-0.9-1.1-1.5-2-1.5s-1.8,0.6-2,1.5h-1
		c0.1-0.2,0.2-0.4,0.2-0.7V4h3.5c0,0,0.3,0,0.7,0.4C15.7,4.6,15.8,4.8,16,5l0,0h-2.2c-0.8,0-1,0.5-1,0.8v1.5c0,0.7,0.5,1,0.9,1h4
		l0,2.9C17.7,11.2,17.7,11.4,17.5,11.5z"/>
	<path d="M2.9,5.7l1-0.8c0,0,0.1,0,0.1,0c0.3,0,0.5-0.2,0.5-0.5c0-0.1-0.1-0.3-0.1-0.4V1.9H3.9v2C3.6,4,3.5,4.2,3.5,4.4
		c0,0,0,0.1,0,0.1l-1,0.8L2.9,5.7z"/>
</g>
</svg>
